HIERARCHY
ROOT Hips
{
	OFFSET 0.000000 89.005402 0.000000
	CHANNELS 6 Xposition Yposition Zposition Xrotation Yrotation Zrotation
	JOINT Spine
	{
		OFFSET 0.116900 10.681000 0.373400
		CHANNELS 3 Xrotation Yrotation Zrotation
		JOINT Spine1
		{
			OFFSET 0.000000 13.840401 0.053500
			CHANNELS 3 Xrotation Yrotation Zrotation
			JOINT Spine2
			{
				OFFSET 0.000000 14.712700 -0.366200
				CHANNELS 3 Xrotation Yrotation Zrotation
				JOINT Neck
				{
					OFFSET 0.000000 35.415497 -3.314200
					CHANNELS 3 Xrotation Yrotation Zrotation
					JOINT Head
					{
						OFFSET 0.000000 16.899200 1.218300
						CHANNELS 3 Xrotation Yrotation Zrotation
						JOINT HeadTop_End
						{
							OFFSET 0.000000 22.206207 2.192500
							CHANNELS 3 Xrotation Yrotation Zrotation
							End Site
							{
								OFFSET 0.000000 22.314178 0.000000
							}
						}
					}
				}
				JOINT LeftShoulder
				{
					OFFSET 12.896400 26.716293 -4.548400
					CHANNELS 3 Xrotation Yrotation Zrotation
					JOINT LeftArm
					{
						OFFSET 19.027000 -4.857010 -1.718400
						CHANNELS 3 Xrotation Yrotation Zrotation
						JOINT LeftForeArm
						{
							OFFSET 24.179897 0.000000 0.000000
							CHANNELS 3 Xrotation Yrotation Zrotation
							JOINT LeftHand
							{
								OFFSET 27.156403 0.000000 0.000000
								CHANNELS 3 Xrotation Yrotation Zrotation
								JOINT LeftHandIndex1
								{
									OFFSET 16.441200 0.000000 0.000000
									CHANNELS 3 Xrotation Yrotation Zrotation
									JOINT LeftHandIndex2
									{
										OFFSET 4.821899 0.000000 0.000000
										CHANNELS 3 Xrotation Yrotation Zrotation
										JOINT LeftHandIndex3
										{
											OFFSET 6.386497 0.000000 0.000000
											CHANNELS 3 Xrotation Yrotation Zrotation
											JOINT LeftHandIndex4
											{
												OFFSET 5.188988 0.000000 0.000000
												CHANNELS 3 Xrotation Yrotation Zrotation
												End Site
												{
													OFFSET -0.178703 5.185913 0.000177
												}
											}
										}
									}
								}
								JOINT LeftHandThumb1
								{
									OFFSET 6.534897 -5.032593 5.900300
									CHANNELS 3 Xrotation Yrotation Zrotation
									JOINT LeftHandThumb2
									{
										OFFSET 3.818176 -2.204422 2.204423
										CHANNELS 3 Xrotation Yrotation Zrotation
										JOINT LeftHandThumb3
										{
											OFFSET 3.252098 -1.877594 1.877601
											CHANNELS 3 Xrotation Yrotation Zrotation
											JOINT LeftHandThumb4
											{
												OFFSET 5.251778 -3.032120 3.032117
												CHANNELS 3 Xrotation Yrotation Zrotation
												End Site
												{
													OFFSET 0.000023 6.780014 0.000000
												}
											}
										}
									}
								}
							}
						}
					}
				}
				JOINT RightShoulder
				{
					OFFSET -12.896300 26.716293 -4.548400
					CHANNELS 3 Xrotation Yrotation Zrotation
					JOINT RightArm
					{
						OFFSET -19.027000 -4.857010 -1.718400
						CHANNELS 3 Xrotation Yrotation Zrotation
						JOINT RightForeArm
						{
							OFFSET -24.179897 0.000000 0.000000
							CHANNELS 3 Xrotation Yrotation Zrotation
							JOINT RightHand
							{
								OFFSET -27.156403 0.000000 0.000000
								CHANNELS 3 Xrotation Yrotation Zrotation
								JOINT RightHandThumb1
								{
									OFFSET -6.591202 -4.852203 5.988100
									CHANNELS 3 Xrotation Yrotation Zrotation
									JOINT RightHandThumb2
									{
										OFFSET -3.818176 -2.204422 2.204423
										CHANNELS 3 Xrotation Yrotation Zrotation
										JOINT RightHandThumb3
										{
											OFFSET -3.252098 -1.877594 1.877601
											CHANNELS 3 Xrotation Yrotation Zrotation
											JOINT RightHandThumb4
											{
												OFFSET -5.251778 -3.032120 3.032117
												CHANNELS 3 Xrotation Yrotation Zrotation
												End Site
												{
													OFFSET -0.000023 6.780014 0.000000
												}
											}
										}
									}
								}
								JOINT RightHandIndex1
								{
									OFFSET -16.029404 0.000000 0.000000
									CHANNELS 3 Xrotation Yrotation Zrotation
									JOINT RightHandIndex2
									{
										OFFSET -5.213303 0.000000 0.000000
										CHANNELS 3 Xrotation Yrotation Zrotation
										JOINT RightHandIndex3
										{
											OFFSET -6.386528 0.000000 0.000000
											CHANNELS 3 Xrotation Yrotation Zrotation
											JOINT RightHandIndex4
											{
												OFFSET -5.189026 0.000000 0.000000
												CHANNELS 3 Xrotation Yrotation Zrotation
												End Site
												{
													OFFSET 0.236702 5.183624 0.001972
												}
											}
										}
									}
								}
							}
						}
					}
				}
			}
		}
	}
	JOINT LeftUpLeg
	{
		OFFSET 14.073000 -7.904099 -1.463000
		CHANNELS 3 Xrotation Yrotation Zrotation
		JOINT LeftLeg
		{
			OFFSET -0.109806 -34.073280 4.093200
			CHANNELS 3 Xrotation Yrotation Zrotation
			JOINT LeftFoot
			{
				OFFSET 0.109806 -29.899420 -6.319000
				CHANNELS 3 Xrotation Yrotation Zrotation
				JOINT LeftToeBase
				{
					OFFSET 1.551100 -14.988700 20.535801
					CHANNELS 3 Xrotation Yrotation Zrotation
					JOINT LeftToe_End
					{
						OFFSET 0.221200 0.570800 13.248301
						CHANNELS 3 Xrotation Yrotation Zrotation
						End Site
						{
							OFFSET 0.000000 13.262435 0.000000
						}
					}
				}
			}
		}
	}
	JOINT RightUpLeg
	{
		OFFSET -13.839300 -7.904099 -1.463000
		CHANNELS 3 Xrotation Yrotation Zrotation
		JOINT RightLeg
		{
			OFFSET 0.109694 -34.073219 4.093300
			CHANNELS 3 Xrotation Yrotation Zrotation
			JOINT RightFoot
			{
				OFFSET -0.109694 -29.899384 -6.319200
				CHANNELS 3 Xrotation Yrotation Zrotation
				JOINT RightToeBase
				{
					OFFSET -1.551100 -14.988700 20.535801
					CHANNELS 3 Xrotation Yrotation Zrotation
					JOINT RightToe_End
					{
						OFFSET -0.221200 0.570900 13.248299
						CHANNELS 3 Xrotation Yrotation Zrotation
						End Site
						{
							OFFSET 0.000000 13.262440 0.000000
						}
					}
				}
			}
		}
	}
}
MOTION
Frames: 9
Frame Time: 0.033333
-1.731700 71.626015 1.111848 11.687173 -49.461689 11.396013 10.978387 2.787502 -2.155208 6.100716 5.566558 -4.284688 -5.786909 6.328111 -3.046184 2.318156 9.363376 -0.265453 -4.146023 23.161894 -3.523085 -0.000001 -0.000000 -0.000000 -1.900465 -16.391995 -2.913562 -10.634145 2.365712 -45.436136 -22.862342 -25.786252 -15.871654 2.491094 -2.511879 6.860518 -1.232794 -5.771938 -0.192309 0.133920 -0.197699 -4.602132 0.055728 -0.448192 -7.568227 -0.000002 -0.000000 -0.000002 18.457924 -9.513789 13.216589 -1.150212 11.255338 -8.400853 5.706537 8.483092 -0.820746 -0.000003 -0.000001 0.000003 -5.102303 24.696045 1.528446 6.850663 -35.190600 57.682464 -21.120560 44.937372 20.064984 -0.106436 35.661077 7.521900 55.149553 18.649567 -29.698308 -0.442529 -14.180572 7.313154 21.666982 -29.244483 9.142375 -0.000001 0.000001 0.000000 5.673415 7.585039 36.844147 1.050495 3.824505 68.900230 0.499527 3.026043 62.196488 -0.000001 -0.000002 0.000001 -64.946356 26.591117 44.239255 46.271765 -21.279818 3.025096 2.031846 1.396225 -11.917609 -0.918841 -6.110441 0.929396 -0.000000 -0.000001 -0.000000 -29.521006 -0.236642 -29.198953 53.475812 5.069623 -6.102676 -30.610572 -5.338833 27.121259 0.528332 2.970116 1.471343 0.000000 -0.000002 -0.000000 
-1.443477 71.505203 1.077681 13.099385 -49.430724 12.166927 10.981684 2.467455 -2.122655 6.094434 4.934955 -4.212635 -5.780252 5.695312 -3.106582 1.822065 10.040302 -0.047683 -3.255678 23.723504 -3.695999 -0.000001 -0.000000 0.000000 -1.796885 -14.868769 -2.988091 -10.863938 4.277050 -44.363622 -23.220082 -28.572302 -16.367365 2.359171 -1.878029 5.950026 -1.248817 -5.606666 -0.586597 0.131438 -0.213341 -4.806256 0.055725 -0.448192 -7.568226 -0.000001 0.000003 -0.000002 17.395739 -10.289764 13.248172 -1.069806 11.367271 -8.372863 5.706540 8.483089 -0.820748 -0.000003 0.000001 0.000000 -5.093571 23.828172 1.473041 5.245645 -32.904751 54.732748 -17.828255 46.538368 19.151123 -3.744469 34.053933 7.151993 55.149553 18.649570 -29.698308 -0.442533 -14.180573 7.313154 21.666982 -29.244483 9.142377 0.000001 -0.000000 -0.000001 5.673413 7.585038 36.844144 1.050497 3.824507 68.900230 0.499531 3.026041 62.196488 -0.000001 -0.000003 0.000003 -65.911578 25.750798 43.971470 46.687174 -20.569743 3.126584 2.015196 1.407873 -12.004673 -0.982128 -6.012183 1.002176 -0.000000 0.000001 0.000000 -31.162072 -0.491664 -29.427815 53.441739 4.738040 -5.782533 -30.141860 -4.126394 27.377997 0.528324 2.970157 1.471349 0.000000 -0.000001 -0.000000 
-0.551150 70.527946 0.814527 16.788489 -49.656418 14.778865 11.112241 1.991679 -2.022412 6.339001 3.994479 -4.013618 -5.520228 4.734148 -3.106183 0.463204 11.431975 0.217918 -2.808502 24.809170 -4.928212 -0.000001 0.000000 -0.000000 -1.656309 -12.495421 -3.602701 -12.188323 9.414464 -42.759785 -24.714783 -35.432494 -17.067336 2.601221 -1.361976 5.547372 -1.317208 -5.309938 -1.550416 0.125019 -0.255376 -5.349081 0.055730 -0.448191 -7.568225 0.000000 -0.000002 0.000003 14.866953 -12.419657 12.886355 -0.962862 11.539658 -8.313950 5.706533 8.483092 -0.820745 -0.000003 0.000002 -0.000001 -5.005709 22.351668 1.095697 3.420590 -30.492615 51.065315 -15.565882 52.448746 18.174382 -7.730883 29.625870 6.476926 55.149550 18.649567 -29.698311 -0.442535 -14.180577 7.313155 21.666981 -29.244479 9.142379 0.000000 0.000001 -0.000001 5.673411 7.585035 36.844147 1.050497 3.824500 68.900230 0.499526 3.026043 62.196488 0.000003 -0.000001 -0.000002 -69.724968 23.971493 44.369670 49.182932 -19.378602 2.911302 1.668813 1.359054 -11.466049 -0.153392 -5.692898 0.178741 -0.000000 -0.000003 0.000000 -36.024163 0.600744 -29.785932 55.477440 4.642146 -5.663625 -29.756440 -2.849079 27.916218 0.528296 2.970104 1.471381 0.000000 -0.000001 0.000000 
0.670740 68.312149 0.402133 23.648441 -50.519617 19.589939 11.268700 1.616822 -1.910408 6.639803 3.280230 -3.761538 -5.210981 3.983388 -3.006732 -1.389244 13.508282 0.305649 -3.565157 26.589209 -6.799127 -0.000001 0.000000 -0.000000 -1.417201 -9.270527 -4.899281 -14.211895 16.845118 -41.004716 -27.543110 -45.518344 -18.837073 3.470535 -3.261805 7.897676 -1.421335 -4.870026 -2.968636 0.117559 -0.312635 -6.150721 0.055727 -0.448191 -7.568225 0.000003 0.000001 -0.000001 11.285962 -15.717744 12.212978 -0.808295 11.787272 -8.227155 5.706538 8.483090 -0.820741 -0.000003 -0.000000 -0.000000 -4.950197 20.333622 0.620930 3.280211 -29.186314 48.007798 -16.919140 61.827576 20.147711 -11.141562 24.694426 4.224533 55.149550 18.649565 -29.698308 -0.442532 -14.180578 7.313154 21.666982 -29.244483 9.142376 0.000000 0.000000 -0.000001 5.673413 7.585031 36.844147 1.050494 3.824510 68.900230 0.499530 3.026039 62.196488 0.000002 0.000001 -0.000000 -77.859669 20.875848 47.817871 54.538996 -19.283521 1.283271 0.779585 1.466115 -9.497237 -0.000734 -5.192734 -0.000061 -0.000000 0.000000 0.000000 -44.812024 2.939660 -29.261234 60.107645 7.120157 -5.623886 -29.659106 -3.044330 27.156861 0.528275 2.970145 1.471370 -0.000000 0.000001 0.000000 
2.105679 64.630455 -0.129469 32.528844 -51.307917 25.725452 11.549994 1.250517 -1.703791 7.193923 2.632316 -3.302567 -4.653098 3.255065 -2.690824 -2.957142 16.061441 0.013832 -6.043021 28.871230 -8.260294 0.000000 -0.000000 -0.000001 -0.958451 -5.394408 -7.039860 -16.037487 26.265422 -39.300868 -31.688553 -57.616498 -22.427730 5.551396 -8.888055 14.942159 -1.556317 -4.345859 -4.676854 0.109025 -0.384032 -7.123819 0.055730 -0.448192 -7.568226 0.000000 -0.000000 0.000002 7.184290 -19.933680 11.139977 -0.641182 12.068730 -8.125910 5.706533 8.483092 -0.820744 0.000002 -0.000001 -0.000000 -4.920075 17.799896 0.111035 5.135886 -29.147562 46.605533 -27.143957 73.067151 31.152411 -13.434939 21.198814 -0.746825 55.149546 18.649567 -29.698311 -0.442529 -14.180579 7.313155 21.666986 -29.244486 9.142376 0.000000 0.000000 0.000001 5.673413 7.585035 36.844144 1.050497 3.824503 68.900230 0.499531 3.026042 62.196488 -0.000003 -0.000000 -0.000001 -88.438252 15.245341 52.264867 62.736196 -19.423318 -0.199371 -0.451177 1.646677 -7.418286 -0.000621 -4.547505 -0.000047 -0.000000 0.000002 -0.000000 -56.324513 6.115434 -28.005574 66.775044 8.452771 -5.818281 -29.812656 -2.063870 27.523849 0.528276 2.970249 1.471363 -0.000000 -0.000001 0.000000 
3.512669 59.506958 -0.732294 41.983175 -51.775429 32.169757 11.955914 0.736922 -1.429850 7.999769 1.745528 -2.725672 -3.843638 2.268669 -2.308580 -3.423441 18.594999 -0.901991 -10.644433 30.757950 -8.260459 0.000000 0.000000 0.000000 -0.211880 -1.110805 -10.542528 -17.649680 36.842921 -37.348311 -37.036171 -69.823023 -27.609443 9.570725 -16.077048 25.443348 -1.727296 -3.839980 -6.483309 0.100333 -0.463150 -8.178870 0.055730 -0.448191 -7.568224 0.000003 0.000000 -0.000001 3.096622 -24.676770 9.549349 -0.518148 12.300733 -8.023104 5.706536 8.483091 -0.820744 -0.000001 0.000001 0.000000 -5.017681 14.680879 0.118043 7.810344 -28.749523 48.049978 -54.174844 82.130757 59.134569 -14.261526 20.875283 -9.839261 55.149550 18.649567 -29.698308 -0.442531 -14.180575 7.313156 21.666982 -29.244483 9.142376 -0.000000 0.000000 0.000001 5.673413 7.585039 36.844151 1.050497 3.824501 68.900230 0.499526 3.026040 62.196488 0.000003 0.000001 -0.000002 -99.435533 6.682707 55.833928 73.032781 -19.037742 -0.318790 -1.504422 1.869441 -6.629554 -0.000498 -3.953806 -0.000042 0.000000 0.000002 -0.000000 -69.307944 9.625172 -26.100320 75.123885 10.036101 -6.056955 -30.226176 -1.267506 28.198381 0.528288 2.970209 1.471383 0.000000 -0.000002 0.000000 
4.565659 53.300194 -1.245554 49.870210 -51.276293 37.552605 12.441238 -0.074917 -1.124299 8.966615 0.265400 -2.138122 -2.873522 0.699386 -2.037870 -2.482366 20.492036 -2.473500 -16.944839 31.228547 -6.887983 0.000001 -0.000000 -0.000000 1.276320 3.173476 -14.258965 -20.492123 45.761151 -35.623996 -39.918836 -77.189423 -30.540388 12.148373 -20.475256 33.764265 -1.943778 -3.462558 -8.194596 0.088767 -0.542216 -9.226002 0.055728 -0.448192 -7.568224 -0.000001 0.000000 -0.000000 -0.533739 -29.431056 7.413106 -0.502368 12.402143 -7.934694 5.706540 8.483092 -0.820745 -0.000001 0.000000 0.000000 -5.335726 11.981253 1.205948 9.940942 -27.141792 52.940766 -83.633419 86.356493 88.017082 -14.978031 24.761155 -13.497584 55.149546 18.649563 -29.698305 -0.442532 -14.180574 7.313155 21.666982 -29.244483 9.142376 0.000001 -0.000000 0.000000 5.673416 7.585034 36.844147 1.050495 3.824506 68.900223 0.499528 3.026042 62.196488 -0.000004 0.000000 0.000001 -110.039238 -3.415073 57.623424 83.550508 -18.854165 0.186423 -1.159065 2.085974 -6.688638 -0.000592 -3.365616 -0.000045 0.000000 0.000000 0.000000 -81.865124 13.717330 -24.908517 84.583287 11.944161 -6.173682 -31.266885 -1.123617 29.488758 0.528249 2.970332 1.471405 -0.000000 0.000002 0.000000 
5.201958 46.911430 -1.459379 52.951301 -49.863024 40.372022 13.151913 -0.903993 -0.818770 10.391122 -1.343609 -1.566561 -1.453781 -0.992734 -1.809375 -0.895435 21.319240 -3.962170 -22.767268 30.079187 -5.423535 -0.000000 0.000000 -0.000001 3.069833 6.443092 -18.116706 -27.120108 48.142585 -31.497175 -29.361566 -71.769517 -21.703121 7.395599 -20.599695 33.978111 -2.213166 -3.320403 -9.625642 0.076592 -0.614029 -10.176821 0.055731 -0.448193 -7.568224 -0.000002 -0.000000 -0.000003 -3.365455 -33.621685 4.799269 -0.649511 12.300656 -7.875856 5.706537 8.483092 -0.820745 -0.000001 0.000000 -0.000000 -5.783722 10.460966 3.118296 9.628171 -24.916107 58.121358 -27.011388 85.599441 28.566966 -16.015277 29.320267 -11.957605 55.149556 18.649565 -29.698311 -0.442532 -14.180575 7.313154 21.666982 -29.244483 9.142376 -0.000000 -0.000000 -0.000001 5.673416 7.585038 36.844147 1.050495 3.824502 68.900230 0.499527 3.026040 62.196488 0.000002 -0.000000 0.000000 -119.019215 -11.582776 57.615296 92.282590 -19.556821 0.054857 0.998251 2.210672 -6.297375 -0.000496 -3.017432 -0.000028 -0.000000 -0.000000 0.000000 -91.273491 19.845284 -26.862753 94.178931 14.770156 -5.979202 -32.918606 -1.131686 31.503387 0.528268 2.970258 1.471368 0.000000 -0.000003 0.000000 
5.203812 41.562355 -1.260420 52.559207 -48.988535 41.734460 13.749738 -1.278838 -0.687177 11.589021 -2.249215 -1.334123 -0.262144 -1.926714 -1.768280 -0.064607 21.144705 -4.348522 -25.939791 28.115091 -4.728214 0.000000 -0.000000 0.000000 4.592632 8.120325 -20.404997 -36.336384 41.832682 -28.110555 -16.697622 -50.481115 -13.444958 -1.501100 -18.418987 26.803303 -2.514805 -3.438414 -10.651818 0.064530 -0.671428 -10.949797 0.055727 -0.448192 -7.568225 0.000001 0.000001 0.000001 -5.251338 -36.783379 1.992596 -0.956130 12.003970 -7.855667 5.706538 8.483092 -0.820744 0.000001 0.000000 0.000000 -6.185742 10.495978 4.910893 5.929047 -21.520852 60.580260 -17.190159 75.473945 14.461826 -15.786364 32.697646 -9.517172 55.149553 18.649567 -29.698308 -0.442532 -14.180577 7.313157 21.666981 -29.244486 9.142376 0.000001 -0.000002 0.000001 5.673416 7.585036 36.844147 1.050492 3.824500 68.900230 0.499525 3.026037 62.196488 0.000002 -0.000000 0.000001 -124.460035 -16.990359 57.841539 98.798434 -20.955857 -0.479382 3.263636 2.385371 -6.141302 -0.000605 -2.956424 -0.000034 -0.000000 -0.000002 0.000000 -96.464626 27.413777 -31.004486 101.649614 17.753683 -5.532473 -34.228346 0.315059 34.131958 0.528309 2.970373 1.471420 0.000000 0.000002 0.000000 
